<svg width="54" height="84" viewBox="0 0 54 84" xmlns="http://www.w3.org/2000/svg"><g fill="none" fill-rule="evenodd"><path d="M.082 0h24.162c6.55 0 12.478.265 16.284 1.503 7.7 2.477 10.797 8.578 10.797 14.504 0 3.36-.885 5.394-1.15 6.014-2.832 6.368-8.85 7.606-12.213 8.313 3.805.62 8.85 1.416 12.3 5.307 2.214 2.388 3.453 5.836 3.453 9.374 0 4.864-2.566 11.673-10.355 15.123-4.69 2.034-9.735 2.3-16.904 2.3H.082V0zm14.87 11.673v13h11.77c3.54-.088 9.292-.265 9.292-6.72 0-6.014-5.22-6.28-8.23-6.28H14.95zm0 24.32v15.123h10.884c5.222-.088 12.037-.265 12.037-7.43 0-7.515-6.195-7.604-9.38-7.693H14.95z" fill="#FFF"/><path d="M0 71.134h53.157v12.114H0V71.134z" fill="#FB4D42"/></g></svg>