<svg width="54" height="84" viewBox="0 0 54 84" xmlns="http://www.w3.org/2000/svg"><g fill="none" fill-rule="evenodd"><path d="M.083 0H24.28c6.56 0 12.498.265 16.31 1.5 7.71 2.47 10.813 8.558 10.813 14.47 0 3.352-.886 5.38-1.152 6-2.835 6.35-8.863 7.587-12.23 8.292 3.81.618 8.863 1.412 12.32 5.294 2.216 2.382 3.456 5.823 3.456 9.352 0 4.853-2.57 11.646-10.37 15.087-4.698 2.03-9.75 2.294-16.93 2.294H.084V0zm14.89 11.646v12.97h11.79c3.545-.09 9.306-.265 9.306-6.706 0-6-5.23-6.264-8.244-6.264H14.974zm0 24.262v15.088h10.903c5.23-.09 12.054-.265 12.054-7.41 0-7.5-6.204-7.59-9.395-7.678h-13.56z" fill="#071722"/><path d="M0 70.966h53.238v12.086H0V70.966z" fill="#FB4D42"/></g></svg>